inDegrees=yes
name=ik_OwnShooting_orientations.mot
DataType=double
version=3
OpenSimVersion=4.3-2021-08-27-4bc7ad9
endheader
time	pelvis_tilt	pelvis_list	pelvis_rotation	pelvis_tx	pelvis_ty	pelvis_tz	hip_flexion_r	hip_adduction_r	hip_rotation_r	knee_angle_r	knee_angle_r_beta	ankle_angle_r	subtalar_angle_r	mtp_angle_r	hip_flexion_l	hip_adduction_l	hip_rotation_l	knee_angle_l	knee_angle_l_beta	ankle_angle_l	subtalar_angle_l	mtp_angle_l	lumbar_extension	lumbar_bending	lumbar_rotation	arm_flex_r	arm_add_r	arm_rot_r	elbow_flex_r	pro_sup_r	wrist_flex_r	wrist_dev_r	arm_flex_l	arm_add_l	arm_rot_l	elbow_flex_l	pro_sup_l	wrist_flex_l	wrist_dev_l
6.5	2.217674262482503	-1.083738124954126	148.8619450454976	0	0.9399999999999999	0	35.03546361521888	-9.82816872647547	0	47.18729832413213	0.8235737208769081	-4.967229453007602	0	0	35.03546361521888	-9.82816872647547	0	47.18729832413213	0.8235737208769081	-4.967229453007602	0	0	13.00882738421287	-4.622426773345699	6.142595819449296	0	-8.030302112158681	0	61.79691259479215	43.81635469688094	0	0	-12.39740587636398	-26.90607764867924	38.02597509479985	0.004166240893353111	43.81635469688094	0	0
6.51	2.225579385715065	-1.098019965698795	148.871840073844	0	0.9399999999999999	0	35.03752296258449	-9.828290147673741	0	47.18944430656465	0.8236111753360456	-4.967259637409128	0	0	35.03752296258449	-9.828290147673741	0	47.18944430656465	0.8236111753360456	-4.967259637409128	0	0	13.0185231474038	-4.640811530627613	6.119580571831503	0	-8.031031759384309	0	61.79967816761181	43.81701720019033	0	0	-12.26422534429441	-26.91785849815363	38.06165657758796	0.004184386499693826	43.81701720019033	0	0
6.52	2.237789908188631	-1.108917645059156	148.8767860542829	0	0.9399999999999999	0	35.04011034581848	-9.82844312052322	0	47.19213338005697	0.8236581085223147	-4.967297679287099	0	0	35.04011034581848	-9.82844312052322	0	47.19213338005697	0.8236581085223147	-4.967297679287099	0	0	13.02263487766233	-4.640762875330865	6.11240154367318	0	-8.031946656360153	0	61.80315310626154	43.81785151827458	0	0	-12.33050693358913	-26.48581280591522	38.55610243742684	0.004205652813375781	43.81785151827458	0	0
6.53	2.241604995598697	-1.09492815278751	148.8749563830746	0	0.9399999999999999	0	35.04400620189654	-9.828673692594691	0	47.19617658812729	0.8237286758154849	-4.967355018893061	0	0	35.04400620189654	-9.828673692594691	0	47.19617658812729	0.8237286758154849	-4.967355018893061	0	0	13.00211373680656	-4.605532075644044	6.116284747665063	0	-8.033322861155195	0	61.8083855254709	43.81910895669518	0	0	-11.95135264691031	-26.04657594986088	39.32872582332286	0.004269112292391531	43.81910895669518	0	0
6.54	2.250540833768681	-1.114482914723981	148.8856948445641	0	0.9399999999999999	0	35.0463089991332	-9.828809146786911	0	47.19857711448861	0.8237705729042709	-4.967388659377431	0	0	35.0463089991332	-9.828809146786911	0	47.19857711448861	0.8237705729042709	-4.967388659377431	0	0	13.01551226469614	-4.622145396140085	6.07675733196793	0	-8.03413928089172	0	61.81147790259873	43.81984852232393	0	0	-11.80289502561449	-25.92714028089636	39.64808857958476	0.004291788998965051	43.81984852232393	0	0
6.55	2.239206306150744	-1.095583005302173	148.8731094867083	0	0.9399999999999999	0	35.05090395536662	-9.829080792390929	0	47.20334453016602	0.8238537800046529	-4.967456172773489	0	0	35.05090395536662	-9.829080792390929	0	47.20334453016602	0.8238537800046529	-4.967456172773489	0	0	12.96683365072689	-4.592790599030295	6.103935862578589	0	-8.035762519249433	0	61.81764916258319	43.82133053113299	0	0	-11.02801515581361	-25.58330805728189	40.34250670838397	0.004390813054745328	43.82133053113299	0	0
6.56	2.20534277974795	-1.135011737974975	148.9080346826946	0	0.9399999999999999	0	35.05414812344501	-9.829272388666659	0	47.20671061615521	0.8239125292880696	-4.967503769993958	0	0	35.05414812344501	-9.829272388666659	0	47.20671061615521	0.8239125292880696	-4.967503769993958	0	0	12.95194373603514	-4.664033252911415	6.055053771012557	0	-8.036908794158261	0	61.82200617344168	43.82237613379561	0	0	-9.765084561433353	-24.96780552296428	41.69503378842487	0.004576821291683192	43.82237613379561	0	0
6.57	2.19944857967409	-1.144327860575479	148.8599936692673	0	0.9399999999999999	0	35.05659942010372	-9.829417089628425	0	47.20925380684104	0.8239569163390432	-4.967539708291421	0	0	35.05659942010372	-9.829417089628425	0	47.20925380684104	0.8239569163390432	-4.967539708291421	0	0	12.91005381668702	-4.673619480501778	6.13986388813425	0	-8.037774960657643	0	61.82529830928038	43.82316594130436	0	0	-10.4279718049736	-25.1410696145577	41.19337191021829	0.00448779837603818	43.82316594130436	0	0
6.58	2.236905016405784	-1.166319898196339	148.8977539310672	0	0.9399999999999999	0	35.05919279264647	-9.829570095518301	0	47.21194445711675	0.8240038770453741	-4.967577700192417	0	0	35.05919279264647	-9.829570095518301	0	47.21194445711675	0.8240038770453741	-4.967577700192417	0	0	12.97014612452473	-4.694598792136035	6.064022202339484	0	-8.038691434257622	0	61.82878122242846	43.82400121307689	0	0	-8.951118772240644	-25.64414860006169	40.96692847636761	0.00464664387428901	43.82400121307689	0	0
6.59	2.239680723588041	-1.156320553134807	148.8783518777525	0	0.9399999999999999	0	35.11049277245813	-9.831752008465715	0	47.27781151359104	0.8251534740494475	-4.968081091560062	0	0	35.11049277245813	-9.831752008465715	0	47.27781151359104	0.8251534740494475	-4.968081091560062	0	0	12.93620334592449	-4.684523934912829	6.091439842602886	0	-8.060137466503983	0	61.89720001179813	43.83670553506497	0	0	-1.283730576719229	-25.05116245292403	44.07393778544606	0.005899374492842917	43.83670553506497	0	0
6.6	2.253497199913188	-1.162234447080078	148.8790449392787	0	0.9399999999999999	0	35.22479049513087	-9.837993377256959	0	47.40121679811906	0.8273073025788218	-4.969588432057654	0	0	35.22479049513087	-9.837993377256959	0	47.40121679811906	0.8273073025788218	-4.969588432057654	0	0	12.93948110526513	-4.685835161330705	6.089002725895984	0	-8.101645937987604	0	62.05050744410362	43.87147070406812	0	0	0.5489074921139541	-25.64757638260154	44.17042777705325	0.006174216964147839	43.87147070406812	0	0
6.61	2.268756867626348	-1.167830508913956	148.8709654814669	0	0.9399999999999999	0	35.33976893917738	-9.84410355320324	0	47.5255984377702	0.8294781717197633	-4.97104775781406	0	0	35.33976893917738	-9.84410355320324	0	47.5255984377702	0.8294781717197633	-4.97104775781406	0	0	12.92952138679458	-4.678974587118933	6.077224157534125	0	-8.143662686512345	0	62.20465740809983	43.90577263173523	0	0	1.973465351880256	-26.08123576934182	43.64049226689515	0.006429902845196123	43.90577263173523	0	0
6.62	2.28083554109824	-1.189149471568868	148.8924296314183	0	0.9399999999999999	0	35.46176243936235	-9.850590684564473	0	47.65695214358808	0.8317707263709814	-4.97258896793331	0	0	35.46176243936235	-9.850590684564473	0	47.65695214358808	0.8317707263709814	-4.97258896793331	0	0	12.96326742987618	-4.67888603209196	6.061051509701995	0	-8.187894998787584	0	62.36825131781259	43.94228040658981	0	0	2.375913100110469	-26.13754119981698	42.56842175022137	0.006611937557719341	43.94228040658981	0	0
6.63	2.275745612752783	-1.178391023562929	148.8950262042912	0	0.9399999999999999	0	35.57813621331122	-9.85664324586503	0	47.78192742194371	0.8339519564618836	-4.974011496547832	0	0	35.57813621331122	-9.85664324586503	0	47.78192742194371	0.8339519564618836	-4.974011496547832	0	0	12.92028336463356	-4.670813803763049	6.049243580689063	0	-8.230186314644625	0	62.52425901457245	43.97659002485185	0	0	3.299058511249705	-26.40223619051521	41.92358669611669	0.006800088210705635	43.97659002485185	0	0
6.64	2.289699243608198	-1.182188805554269	148.9032807695206	0	0.9399999999999999	0	35.58054313063353	-9.856769443353528	0	47.78443873185135	0.8339957870883098	-4.974041350430273	0	0	35.58054313063353	-9.856769443353528	0	47.78443873185135	0.8339957870883098	-4.974041350430273	0	0	12.92426751255433	-4.681933268586265	6.034553528702997	0	-8.231060459535714	0	62.5274848047903	43.97730277336561	0	0	4.355190619488401	-27.07501497862795	41.61590425640762	0.006939298234576696	43.97730277336561	0	0
6.65	2.285476778832221	-1.184613945107722	148.8938236199693	0	0.9399999999999999	0	35.58221767850504	-9.85685707410523	0	47.78618782876045	0.8340263145883102	-4.974062070223097	0	0	35.58221767850504	-9.85685707410523	0	47.78618782876045	0.8340263145883102	-4.974062070223097	0	0	12.92789046430261	-4.666924767391371	6.035004253829276	0	-8.231669202258342	0	62.52972897792164	43.97779790395179	0	0	4.71852639121147	-27.36494717797882	41.57160162057932	0.006930412595621403	43.97779790395179	0	0
6.66	2.252361734487859	-1.198815552359022	148.8710226839495	0	0.9399999999999999	0	35.58431113134159	-9.856966682059712	0	47.78837273874915	0.8340644484614727	-4.974087985566473	0	0	35.58431113134159	-9.856966682059712	0	47.78837273874915	0.8340644484614727	-4.974087985566473	0	0	12.86343084297486	-4.695913192629718	6.10446832958575	0	-8.232429815684116	0	62.53253459361314	43.97841719430865	0	0	4.36159402006781	-27.28676399087129	41.08328161212388	0.0067967696085291	43.97841719430865	0	0
6.67	2.275057835873016	-1.194458150126955	148.8899475851883	0	0.9399999999999999	0	35.58724227414565	-9.857120078172564	0	47.79143181482051	0.8341178394109868	-4.974124245840058	0	0	35.58724227414565	-9.857120078172564	0	47.79143181482051	0.8341178394109868	-4.974124245840058	0	0	12.88330558248132	-4.677146218833526	6.063710691832298	0	-8.233494863041459	0	62.53646284106071	43.97928401893222	0	0	3.744100528012922	-26.88921355659162	40.58769392276076	0.006725962580582607	43.97928401893222	0	0
6.68	2.265635090843058	-1.22373354265193	148.9181126526059	0	0.9399999999999999	0	35.58912664982611	-9.857218063877781	0	47.79340744204302	0.8341523206108117	-4.974147375430872	0	0	35.58912664982611	-9.857218063877781	0	47.79340744204302	0.8341523206108117	-4.974147375430872	0	0	12.89793332935588	-4.72081723993876	6.008162178051711	0	-8.234182091632752	0	62.53898790417827	43.9798384030271	0	0	3.684943772100981	-26.2337677275385	40.85889597873722	0.006786710535316483	43.9798384030271	0	0
6.69	2.26011751682194	-1.225566199513994	148.896341222352	0	0.9399999999999999	0	35.59071793933359	-9.857300966248669	0	47.79507280624368	0.834181386699358	-4.974166949872377	0	0	35.59071793933359	-9.857300966248669	0	47.79507280624368	0.834181386699358	-4.974166949872377	0	0	12.86915095110651	-4.720372735222123	6.051119004463002	0	-8.234761659510612	0	62.54112032191306	43.98030731272309	0	0	3.562672432875051	-25.98618891676037	40.59676156370407	0.006756773468438297	43.98030731272309	0	0
6.7	2.254170307046159	-1.226525498282068	148.9053475663733	0	0.9399999999999999	0	35.59249333491577	-9.857393353539742	0	47.79693200264366	0.834213835797979	-4.974188756863203	0	0	35.59249333491577	-9.857393353539742	0	47.79693200264366	0.834213835797979	-4.974188756863203	0	0	12.85590642320654	-4.720107565008113	6.040590673652665	0	-8.235408641824748	0	62.54349939898056	43.98083000266342	0	0	3.375558965251801	-25.60146248425809	40.33036059867913	0.006753027460297474	43.98083000266342	0	0
6.71	2.265098661035385	-1.221638652238981	148.914783829756	0	0.9399999999999999	0	35.59453466211845	-9.857499275399404	0	47.79907396010503	0.8342512200081175	-4.974213742453142	0	0	35.59453466211845	-9.857499275399404	0	47.79907396010503	0.8342512200081175	-4.974213742453142	0	0	12.84521558819036	-4.713512775776303	5.999893204200037	0	-8.236153756059858	0	62.54623466910507	43.98142959694167	0	0	3.228424119081763	-25.15928749608097	40.29747440441829	0.00675619455069452	43.98142959694167	0	0
